<svg width="291" height="301" viewBox="0 0 291 301" fill="none" xmlns="http://www.w3.org/2000/svg">
<path d="M2 178.009C60.2335 150.693 97.3843 143.557 147.077 143.962C196.77 144.367 245.082 156.829 288.132 180.349" stroke="white" stroke-width="8"/>
<rect x="5.83582" y="101.992" width="98" height="274" rx="13" transform="rotate(-90 5.83582 101.992)" stroke="white" stroke-width="6"/>
<circle cx="58.0894" cy="52.8487" r="36.2205" transform="rotate(-90 58.0894 52.8487)" fill="white" stroke="black" stroke-width="2"/>
<circle cx="146.214" cy="53.2257" r="36.2205" transform="rotate(-90 146.214 53.2257)" fill="white" stroke="black" stroke-width="2"/>
<path fill-rule="evenodd" clip-rule="evenodd" d="M174.418 215.407C173.846 214.493 173.446 213.521 172.875 212.549C172.303 211.578 171.989 211.12 171.56 210.32H45.3864L45.072 210.806L44.1003 212.063C43.243 213.178 42.2713 214.378 41.3854 215.55C41.0195 216.157 40.5883 216.723 40.0994 217.236L40.0994 269.677C40.496 270.129 40.9363 270.541 41.414 270.906L42.1856 271.706C42.5907 272.011 42.9641 272.356 43.3001 272.735L43.8146 273.193C44.3995 273.63 44.9275 274.139 45.3864 274.707H54.9316C55.2635 274.751 55.5998 274.751 55.9318 274.707V269.677H60.39V274.764H89.7686L89.9115 274.936C90.3402 275.279 90.6831 275.707 91.1404 276.022C91.5977 276.336 92.3407 277.194 92.9694 277.679C93.4311 277.989 93.8451 278.365 94.1983 278.794H121.348L125.835 274.764H154.413C154.707 274.808 155.005 274.808 155.299 274.764V269.677H159.757V274.764H171.56C171.882 274.401 172.169 274.009 172.417 273.593L175.447 269.677V217.236L175.189 216.836C174.961 216.379 174.704 215.864 174.418 215.407ZM59.4469 256.503H54.1028L54.1028 252.245H59.4469V256.503ZM59.4469 246.843H54.1028V242.557H59.4469V246.843ZM59.4469 238.27H54.1028V233.954H59.4469V238.27ZM59.4469 228.582H54.1028V224.295H59.4469V228.582ZM118.547 224.295H123.92V228.553H118.547V224.295ZM118.547 233.954H123.92V238.241H118.547V233.954ZM118.547 242.528H123.92V246.815H118.547V242.528ZM111.031 224.295H116.404V228.553H111.031V224.295ZM111.031 233.954H116.404V238.241H111.031V233.954ZM111.031 242.528H116.404V246.815H111.031V242.528ZM103.515 224.295H108.83V228.553H103.515V224.295ZM103.515 233.954H108.83V238.241H103.515V233.954ZM103.515 242.528H108.83V246.815H103.515V242.528ZM93.8554 224.295H99.1709V228.553H93.8554V224.295ZM93.8554 233.954H99.1709V238.241H93.8554V233.954ZM93.8554 242.528H99.1709V246.815H93.8554V242.528ZM84.1673 224.295H89.5114V228.553H84.1673V224.295ZM84.1673 233.954H89.5114V238.241H84.1673V233.954ZM84.1673 242.528H89.5114V246.815H84.1673V242.528ZM74.3935 224.295H79.8234V228.553H74.3935V224.295ZM74.3935 233.954H79.8234V238.241H74.3935V233.954ZM74.3935 242.528H79.8234V246.815H74.3935V242.528ZM63.7623 224.295H69.1064V228.553H63.7623V224.295ZM63.7623 233.954H69.1064V238.241H63.7623V233.954ZM63.7623 242.528H69.1064V246.815H63.7623V242.528ZM113.146 256.474H63.7623V252.245H113.146V256.474ZM124.977 256.474H115.346V252.245H124.977V256.474ZM157.271 224.295H162.644V228.553H157.271V224.295ZM149.755 224.295H155.127V228.553H149.698L149.755 224.295ZM148.697 257.56H143.267V252.245H148.697V257.56ZM148.697 238.241H143.267V233.954H148.697V238.241ZM148.697 228.553H143.267V224.295H148.697V228.553ZM149.783 233.954H155.156V238.241H149.698L149.783 233.954ZM157.271 257.56H151.87V252.245H157.271V257.56ZM157.271 248.987H151.87V244.614H157.271V248.987ZM157.271 233.983H162.644V238.27H157.271V233.983ZM164.787 257.589H159.386V252.245H164.73L164.787 257.589Z" fill="white"/>
<path d="M251.383 243.537L251.377 243.27L251.237 243.04C251.213 242.999 248.757 238.922 248.388 235.741L248.36 235.492L244.574 230.034L244.61 221.672L232.477 214.553L232.46 218.723L231.133 218.718L231.189 205.435L229.189 205.427L229.132 218.709L228.251 218.705L228.268 214.797L216.246 220.825L216.236 223.101L212.518 225.558L212.48 234.322L215.487 237.493L215.474 240.618L210.777 247.191L210.72 260.674L221.922 272.821L222.121 272.987C222.258 273.073 225.521 275.109 230.029 275.128L230.03 275.128C232.691 275.139 235.232 274.446 237.583 273.068L237.707 272.995L244.98 265.229L245.106 265.061C245.373 264.62 251.616 254.142 251.383 243.536L251.383 243.537ZM247.168 239.072C247.086 240.275 246.493 247.14 243.339 253.874C244.185 246.053 244.451 237.853 244.535 233.486L246.435 236.225C246.568 237.162 246.84 238.138 247.168 239.072L247.168 239.072ZM242.121 244.07C242.041 245.418 241.947 246.791 241.841 248.17L218.153 258.736C217.794 257.1 217.595 255.797 217.496 255.048L242.121 244.07ZM218.628 260.714L241.653 250.445C241.584 251.232 241.508 252.016 241.428 252.796L219.163 262.599C218.964 261.95 218.786 261.319 218.627 260.714L218.628 260.714ZM234.463 218.037L242.605 222.815L242.573 230.345C242.569 233.091 242.477 237.224 242.243 241.827L228.127 248.119L228.137 245.79L234.358 242.436L234.463 218.036L234.463 218.037ZM232.452 220.724L232.364 241.241L228.147 243.514L228.245 220.706L232.452 220.724ZM214.484 233.529L214.514 226.637L216.227 225.505L216.199 231.876L218.199 231.885L218.241 222.064L226.256 218.045L226.124 249.012L217.423 252.891L217.492 236.7L214.484 233.529ZM212.775 247.837L215.46 244.08L215.416 254.43C215.416 254.462 215.425 254.493 215.428 254.524L215.421 254.525C215.447 254.808 215.933 259.913 218.102 265.728L212.725 259.897L212.776 247.837L212.775 247.837ZM230.04 273.128C230.039 273.128 230.039 273.128 230.04 273.128C226.538 273.113 223.841 271.673 223.294 271.358L222.59 270.594C221.421 268.601 220.507 266.506 219.795 264.506L241.18 255.093C240.359 262.082 239.099 268.254 237.2 270.613L236.447 271.416C234.447 272.562 232.292 273.138 230.04 273.129L230.04 273.128ZM243.446 263.943L241.183 266.36C241.772 264.253 242.259 261.788 242.661 259.153C246.54 253.386 248.124 246.741 248.761 242.696C249.028 243.207 249.252 243.605 249.388 243.841C249.494 253.287 244.036 262.931 243.446 263.943L243.446 263.943Z" fill="white"/>
<path d="M222.383 222.736L224.383 222.744L224.318 237.988L222.318 237.98L222.383 222.736Z" fill="white"/>
<path d="M222.312 239.525L224.312 239.534L224.293 243.757L222.293 243.748L222.312 239.525Z" fill="white"/>
<path d="M229.75 263.333C227.298 263.323 225.295 265.308 225.285 267.76C225.274 270.211 227.26 272.215 229.712 272.225C232.163 272.236 234.166 270.25 234.177 267.798C234.187 265.347 232.201 263.344 229.75 263.333ZM229.72 270.224C228.372 270.218 227.279 269.116 227.285 267.767C227.291 266.419 228.393 265.326 229.741 265.332C231.089 265.338 232.182 266.439 232.177 267.788C232.171 269.137 231.069 270.23 229.72 270.224Z" fill="white"/>
<path d="M238.265 228.336L239.326 228.341L239.334 226.341L236.274 226.328L236.239 234.4L238.239 234.409L238.265 228.336Z" fill="white"/>
</svg>
