<svg width="299" height="290" viewBox="0 0 299 290" fill="none" xmlns="http://www.w3.org/2000/svg">
<path d="M177.017 288.132C149.701 229.899 142.565 192.748 142.97 143.055C143.375 93.3618 155.837 45.0504 179.357 1.99994" stroke="black" stroke-width="8"/>
<rect x="101" y="284.296" width="98" height="274" rx="13" transform="rotate(-180 101 284.296)" stroke="black" stroke-width="6"/>
<circle cx="50.8488" cy="232.043" r="36.2205" transform="rotate(-180 50.8488 232.043)" fill="white" stroke="black" stroke-width="2"/>
<circle cx="51.2258" cy="143.918" r="36.2205" transform="rotate(-180 51.2258 143.918)" fill="white" stroke="black" stroke-width="2"/>
<path fill-rule="evenodd" clip-rule="evenodd" d="M213.407 115.714C212.493 116.286 211.521 116.686 210.549 117.257C209.578 117.829 209.12 118.143 208.32 118.572L208.32 244.746L208.806 245.06L210.063 246.032C211.178 246.889 212.378 247.861 213.55 248.747C214.157 249.113 214.723 249.544 215.236 250.033H267.678C268.13 249.636 268.541 249.196 268.906 248.718L269.707 247.946C270.011 247.541 270.356 247.168 270.735 246.832L271.193 246.318C271.63 245.733 272.139 245.205 272.707 244.746V235.201C272.751 234.869 272.751 234.532 272.707 234.2H267.678V229.742H272.764V200.363L272.936 200.221C273.279 199.792 273.708 199.449 274.022 198.992C274.336 198.534 275.194 197.791 275.679 197.163C275.989 196.701 276.365 196.287 276.794 195.934V168.784L272.764 164.297V135.719C272.808 135.425 272.808 135.127 272.764 134.833H267.678V130.375H272.764V118.572C272.402 118.25 272.009 117.963 271.593 117.715L267.678 114.685H215.236L214.836 114.943C214.379 115.171 213.864 115.428 213.407 115.714ZM254.503 230.685V236.029H250.245V230.685H254.503ZM244.843 230.685V236.029H240.557V230.685H244.843ZM236.27 230.685V236.029H231.955V230.685H236.27ZM226.582 230.685V236.029H222.295V230.685H226.582ZM222.295 171.585V166.212H226.553V171.585H222.295ZM231.955 171.585V166.212H236.241V171.585H231.955ZM240.528 171.585L240.528 166.212H244.815L244.815 171.585H240.528ZM222.295 179.101V173.728H226.553L226.553 179.101H222.295ZM231.955 179.101L231.955 173.728H236.241L236.241 179.101H231.955ZM240.528 179.101V173.728H244.815V179.101H240.528ZM222.295 186.617L222.295 181.302H226.553V186.617H222.295ZM231.955 186.617V181.302H236.241V186.617H231.955ZM240.528 186.617V181.302H244.815V186.617H240.528ZM222.295 196.277V190.961H226.553V196.277H222.295ZM231.955 196.277V190.961H236.241V196.277H231.955ZM240.528 196.277V190.961H244.815V196.277H240.528ZM222.295 205.965V200.621H226.553V205.965H222.295ZM231.955 205.965V200.621H236.241V205.965H231.955ZM240.528 205.965V200.621H244.815V205.965H240.528ZM222.295 215.739V210.309H226.553V215.739H222.295ZM231.955 215.739V210.309H236.241V215.739H231.955ZM240.528 215.739V210.309H244.815V215.739H240.528ZM222.295 226.37V221.026H226.553V226.37H222.295ZM231.955 226.37V221.026H236.241V226.37H231.955ZM240.528 226.37V221.026H244.815V226.37H240.528ZM254.474 176.986V226.37H250.245V176.986H254.474ZM254.474 165.155L254.474 174.786H250.245L250.245 165.155H254.474ZM222.295 132.861V127.489H226.553V132.861H222.295ZM222.295 140.377V135.005H226.553V140.435L222.295 140.377ZM255.56 141.435V146.865H250.245V141.435H255.56ZM236.241 141.435V146.865H231.955V141.435H236.241ZM226.553 141.435V146.865H222.295V141.435H226.553ZM231.955 140.349V134.976H236.241V140.435L231.955 140.349ZM255.56 132.861V138.263H250.245V132.861H255.56ZM246.987 132.861V138.263H242.614V132.861H246.987ZM231.983 132.861V127.489H236.27V132.861H231.983ZM255.589 125.345V130.746H250.245V125.402L255.589 125.345Z" fill="black"/>
<path d="M241.537 38.7489L241.27 38.755L241.04 38.8946C240.999 38.919 236.923 41.3753 233.741 41.744L233.492 41.7725L228.035 45.5578L219.672 45.5226L212.553 57.6547L216.724 57.6725L216.718 58.9995L203.435 58.9432L203.427 60.9432L216.709 61L216.705 61.8806L212.797 61.8639L218.825 73.8859L221.102 73.8957L223.558 77.6144L232.322 77.6518L235.493 74.6447L238.619 74.658L245.191 79.3548L258.674 79.4125L270.821 68.2099L270.988 68.0108C271.074 67.8745 273.109 64.6109 273.128 60.103L273.128 60.1025C273.139 57.4407 272.446 54.8998 271.068 52.5495L270.995 52.4253L263.229 45.152L263.061 45.0257C262.621 44.7587 252.142 38.5164 241.537 38.7488L241.537 38.7489ZM237.072 42.9642C238.275 43.0464 245.141 43.6394 251.874 46.7926C244.053 45.9472 235.853 45.6811 231.486 45.5971L234.225 43.697C235.162 43.5637 236.139 43.2922 237.072 42.9642L237.072 42.9642ZM242.07 48.0114C243.418 48.0914 244.791 48.1854 246.17 48.2912L256.736 71.9795C255.1 72.338 253.797 72.5367 253.048 72.6356L242.07 48.0114ZM258.714 71.5042L248.445 48.4787C249.232 48.5484 250.017 48.6243 250.796 48.7041L260.599 70.9691C259.95 71.1684 259.32 71.3465 258.714 71.5046L258.714 71.5042ZM216.037 55.6687L220.815 47.5266L228.345 47.5588C231.091 47.5633 235.224 47.6547 239.827 47.8886L246.119 62.0055L243.79 61.9956L240.436 55.7742L216.037 55.6692L216.037 55.6687ZM218.724 57.6802L239.241 57.7679L241.515 61.9847L218.706 61.8871L218.724 57.6802ZM231.529 75.648L224.638 75.6185L223.505 73.9055L229.876 73.9328L229.885 71.9328L220.064 71.8908L216.045 63.8758L247.012 64.0082L250.891 72.7091L234.7 72.6398L231.529 75.648ZM245.837 77.3571L242.08 74.6724L252.431 74.7161C252.462 74.7162 252.493 74.7075 252.524 74.7042L252.525 74.7115C252.808 74.6854 257.913 74.1994 263.728 72.0301L257.897 77.4075L245.837 77.3565L245.837 77.3571ZM271.128 60.0922C271.128 60.0928 271.128 60.0928 271.128 60.0922C271.113 63.5939 269.673 66.2909 269.358 66.8376L268.594 67.5425C266.602 68.7109 264.507 69.6249 262.506 70.3373L253.093 48.9526C260.082 49.7726 266.254 51.0334 268.613 52.9326L269.416 53.6849C270.562 55.6854 271.138 57.8401 271.129 60.0924L271.128 60.0922ZM261.943 46.6857L264.36 48.9489C262.253 48.3601 259.788 47.8735 257.153 47.4711C251.386 43.5925 244.741 42.0078 240.696 41.371C241.207 41.1042 241.605 40.8805 241.841 40.7437C251.287 40.6384 260.931 46.0965 261.943 46.6857L261.943 46.6857Z" fill="black"/>
<path d="M220.736 67.7488L220.744 65.7488L235.988 65.814L235.98 67.814L220.736 67.7488Z" fill="black"/>
<path d="M237.526 67.8206L237.534 65.8206L241.757 65.8386L241.749 67.8386L237.526 67.8206Z" fill="black"/>
<path d="M261.333 60.3823C261.323 62.8337 263.309 64.8367 265.76 64.8471C268.211 64.8576 270.215 62.8718 270.225 60.4203C270.236 57.9689 268.25 55.966 265.798 55.9555C263.347 55.945 261.344 57.9309 261.333 60.3823ZM268.224 60.4118C268.219 61.7605 267.116 62.8529 265.767 62.8472C264.419 62.8414 263.326 61.739 263.332 60.3909C263.338 59.0427 264.439 57.9497 265.788 57.9555C267.137 57.9613 268.23 59.063 268.224 60.4118Z" fill="black"/>
<path d="M226.337 51.8668L226.341 50.8066L224.341 50.798L224.328 53.8583L232.401 53.8928L232.409 51.8928L226.337 51.8668Z" fill="black"/>
</svg>
