<?xml version="1.0" encoding="utf-8"?>
<!-- Generator: Adobe Illustrator 27.3.1, SVG Export Plug-In . SVG Version: 6.00 Build 0)  -->
<svg version="1.1" id="Layer_1" xmlns="http://www.w3.org/2000/svg" xmlns:xlink="http://www.w3.org/1999/xlink" x="0px" y="0px"
	 viewBox="0 0 538.8 215" style="enable-background:new 0 0 538.8 215;" xml:space="preserve">
<style type="text/css">
	.st0{fill:#FF0000;}
	.st1{fill:#FFFFFF;}
	.st2{fill:none;stroke:#000000;stroke-width:4;}
	.st3{fill:#333333;stroke:#000000;stroke-width:4;}
	.st4{fill:none;stroke:#000000;stroke-width:3;}
	.st5{fill:none;}
	.st6{fill-rule:evenodd;clip-rule:evenodd;}
	.st7{fill:none;stroke:#000000;}
	.st8{fill:none;stroke:#FFFFFF;stroke-width:3;}
</style>
<path class="st0" d="M517,52.5l0.8-10.5l-8.7,6l-4.2-7.3l9.5-4.5l-9.5-4.5l4.2-7.3l8.7,6L517,19.8h8.4l-0.8,10.5l8.8-6l4.2,7.3
	l-9.5,4.5l9.5,4.5l-4.2,7.3l-8.8-6l0.8,10.5H517z"/>
<path class="st1" d="M353.4,206.3c-0.6,0-1.2,0-1.8-0.1c-0.6-0.1-1.2-0.3-1.7-0.6c-0.5-0.3-1.1-0.7-1.6-1.2
	c-0.5-0.5-0.9-1.2-1.3-2.1c-0.4-0.9-0.7-1.9-0.9-3.2c-0.2-1.3-0.3-2.8-0.3-4.6v-4.2c0-1.7,0.1-3.2,0.3-4.5c0.2-1.2,0.5-2.3,0.9-3.1
	c0.4-0.8,0.8-1.5,1.3-2c0.5-0.5,1-0.9,1.6-1.2c0.6-0.3,1.1-0.4,1.7-0.5c0.6-0.1,1.2-0.1,1.7-0.1c0.5,0,1.1,0,1.7,0.1
	s1.1,0.2,1.7,0.5c0.5,0.2,1.1,0.6,1.5,1.1c0.5,0.5,0.9,1.2,1.3,2c0.4,0.8,0.7,1.9,0.9,3.2c0.2,1.2,0.3,2.8,0.3,4.5v4.2
	c0,1.7-0.1,3.2-0.3,4.5c-0.2,1.3-0.5,2.3-0.9,3.2c-0.4,0.9-0.8,1.6-1.3,2.1c-0.5,0.5-1,1-1.6,1.2c-0.5,0.3-1.1,0.5-1.7,0.6
	C354.5,206.2,353.9,206.3,353.4,206.3z M353.4,202.5c0.4,0,0.8-0.1,1.1-0.3c0.3-0.2,0.6-0.6,0.7-1.1c0.2-0.5,0.3-1.2,0.4-2.1
	c0.1-0.9,0.1-1.9,0.1-3.2v-6.6c0-1.3,0-2.3-0.1-3.2c-0.1-0.9-0.2-1.5-0.4-2.1c-0.2-0.5-0.4-0.9-0.7-1.2c-0.3-0.2-0.7-0.4-1.1-0.4
	c-0.5,0-0.9,0.1-1.2,0.4c-0.3,0.2-0.6,0.6-0.8,1.2c-0.2,0.5-0.4,1.2-0.4,2.1c-0.1,0.9-0.1,1.9-0.1,3.2v6.6c0,1.3,0,2.3,0.1,3.2
	c0.1,0.8,0.2,1.5,0.4,2.1c0.2,0.5,0.5,0.9,0.8,1.1C352.6,202.4,353,202.5,353.4,202.5z M371.4,206.3c-2.3,0-4-0.9-5.2-2.8
	c-1.2-1.9-1.8-4.7-1.8-8.5v-5.1c0-1.7,0.1-3.2,0.4-4.4c0.2-1.2,0.6-2.2,1-3.1c0.4-0.8,0.9-1.5,1.4-2c0.5-0.5,1.1-0.8,1.6-1.1
	c0.6-0.3,1.1-0.4,1.7-0.5c0.5-0.1,1-0.1,1.5-0.1c0.9,0,1.7,0.1,2.5,0.4c0.8,0.2,1.4,0.6,2,1.1c0.5,0.5,1,1.1,1.3,1.8
	c0.3,0.7,0.4,1.6,0.4,2.6c0,0.6,0,1.2-0.1,1.6c-0.1,0.4-0.1,0.9-0.2,1.3h-3.9v-0.9c0-1.4-0.2-2.4-0.5-3.2c-0.3-0.8-0.8-1.2-1.6-1.2
	c-0.4,0-0.8,0.1-1.1,0.3c-0.3,0.2-0.6,0.5-0.8,1c-0.2,0.5-0.3,1.1-0.4,1.8c-0.1,0.8-0.1,1.7-0.1,2.9v7.6c0,1.2,0,2.2,0.1,3
	c0.1,0.8,0.2,1.5,0.4,2c0.2,0.5,0.5,0.9,0.8,1.1c0.3,0.2,0.7,0.4,1.2,0.4c0.2,0,0.5-0.1,0.7-0.2c0.2-0.1,0.4-0.3,0.6-0.6
	c0.2-0.3,0.3-0.7,0.4-1.1c0.1-0.5,0.2-1.1,0.2-1.8v-0.8h4.3v1c0,2.6-0.6,4.4-1.7,5.6C375.4,205.7,373.7,206.3,371.4,206.3z
	 M388.5,206.3c-2.3,0-4-0.9-5.2-2.8c-1.2-1.9-1.8-4.7-1.8-8.5v-5.1c0-1.7,0.1-3.2,0.4-4.4c0.2-1.2,0.6-2.2,1-3.1
	c0.4-0.8,0.9-1.5,1.4-2c0.5-0.5,1.1-0.8,1.6-1.1c0.6-0.3,1.1-0.4,1.7-0.5c0.5-0.1,1-0.1,1.5-0.1c0.9,0,1.7,0.1,2.5,0.4
	c0.8,0.2,1.4,0.6,2,1.1c0.5,0.5,1,1.1,1.3,1.8c0.3,0.7,0.4,1.6,0.4,2.6c0,0.6,0,1.2-0.1,1.6c-0.1,0.4-0.1,0.9-0.2,1.3H391v-0.9
	c0-1.4-0.2-2.4-0.5-3.2c-0.3-0.8-0.8-1.2-1.6-1.2c-0.4,0-0.8,0.1-1.1,0.3c-0.3,0.2-0.6,0.5-0.8,1c-0.2,0.5-0.3,1.1-0.4,1.8
	c-0.1,0.8-0.1,1.7-0.1,2.9v7.6c0,1.2,0,2.2,0.1,3c0.1,0.8,0.2,1.5,0.4,2c0.2,0.5,0.5,0.9,0.8,1.1c0.3,0.2,0.7,0.4,1.2,0.4
	c0.2,0,0.5-0.1,0.7-0.2c0.2-0.1,0.4-0.3,0.6-0.6c0.2-0.3,0.3-0.7,0.4-1.1c0.1-0.5,0.2-1.1,0.2-1.8v-0.8h4.3v1c0,2.6-0.6,4.4-1.7,5.6
	C392.4,205.7,390.7,206.3,388.5,206.3z M399.3,179.1h4.9v20.2c0,1.2,0.2,2,0.5,2.5c0.4,0.5,0.9,0.7,1.6,0.7c0.5,0,1-0.1,1.4-0.4
	c0.5-0.3,0.9-0.7,1.3-1.2v-21.8h4.9V206h-3.8l-0.5-2.9h0c-0.4,0.6-0.8,1.1-1.2,1.5c-0.4,0.4-0.9,0.7-1.4,1c-0.5,0.2-1,0.4-1.4,0.5
	c-0.5,0.1-1,0.2-1.5,0.2c-1.6,0-2.8-0.5-3.7-1.6c-0.8-1.1-1.3-2.7-1.3-5V179.1z M424.1,207.5v7.2h-4.9v-35.6h3.9l0.4,2.8
	c0.2-0.4,0.5-0.7,0.8-1.1c0.3-0.4,0.7-0.7,1.1-1c0.4-0.3,0.9-0.5,1.4-0.7c0.5-0.2,1.1-0.3,1.7-0.3c0.3,0,0.6,0,1,0.1
	c0.4,0.1,0.8,0.2,1.2,0.4c0.4,0.2,0.8,0.5,1.2,0.9c0.4,0.4,0.8,1,1.1,1.7c0.3,0.7,0.6,1.6,0.8,2.7c0.2,1.1,0.3,2.4,0.3,3.9v8.1
	c0,1.5-0.1,2.8-0.3,3.9c-0.2,1.1-0.5,2-0.8,2.7c-0.3,0.7-0.7,1.3-1.1,1.7c-0.4,0.4-0.8,0.7-1.3,0.9c-0.4,0.2-0.8,0.3-1.2,0.4
	c-0.4,0.1-0.8,0.1-1.1,0.1c-1,0-1.9-0.2-2.6-0.6c-0.7-0.4-1.3-0.9-1.7-1.5L424.1,207.5z M424.1,200.5c0.1,0.3,0.2,0.5,0.4,0.7
	c0.2,0.2,0.3,0.4,0.5,0.6c0.2,0.2,0.4,0.3,0.7,0.4c0.3,0.1,0.6,0.2,0.9,0.2c0.4,0,0.7-0.1,1-0.2c0.3-0.1,0.6-0.4,0.8-0.7
	c0.2-0.4,0.4-0.9,0.5-1.5c0.1-0.6,0.2-1.5,0.2-2.5v-10.3c0-1-0.1-1.8-0.2-2.4c-0.1-0.6-0.3-1.1-0.5-1.5c-0.2-0.4-0.5-0.6-0.8-0.7
	c-0.3-0.1-0.6-0.2-1-0.2c-0.6,0-1.1,0.2-1.5,0.6c-0.4,0.4-0.7,0.8-1,1.3V200.5z M445.1,206.3c-1.2,0-2.2-0.2-3.1-0.6
	c-0.9-0.4-1.6-1.1-2.2-2c-0.6-0.9-1.1-2.1-1.4-3.5c-0.3-1.4-0.5-3.2-0.5-5.2v-5.1c0-1.7,0.1-3.2,0.4-4.4c0.3-1.2,0.6-2.2,1-3.1
	c0.4-0.8,0.9-1.5,1.4-2c0.5-0.5,1.1-0.8,1.7-1.1c0.6-0.3,1.1-0.4,1.7-0.5c0.6-0.1,1.1-0.1,1.6-0.1c0.9,0,1.7,0.1,2.6,0.4
	c0.8,0.3,1.5,0.7,2.2,1.4c0.6,0.6,1.1,1.5,1.5,2.6c0.4,1.1,0.6,2.4,0.6,4c0,0.5,0,1.1-0.1,1.7c0,0.6-0.1,1.1-0.1,1.7
	c-0.1,0.5-0.1,1.1-0.2,1.6c-0.1,0.5-0.2,1-0.3,1.4h-8.9v2.7c0,1.2,0,2.2,0.1,3c0.1,0.8,0.2,1.4,0.4,1.9c0.2,0.5,0.5,0.8,0.9,1.1
	c0.4,0.2,0.8,0.3,1.4,0.3c0.3,0,0.6-0.1,0.9-0.2c0.3-0.1,0.5-0.3,0.7-0.6c0.2-0.3,0.4-0.7,0.5-1.1c0.1-0.5,0.2-1.1,0.2-1.8v-0.8h4.1
	v1c0,2.6-0.6,4.4-1.8,5.6C449.2,205.7,447.4,206.3,445.1,206.3z M447.9,190.2c0-0.1,0-0.3,0-0.6c0-0.2,0-0.5,0-0.8
	c0-0.3,0-0.5,0-0.8c0-0.3,0-0.5,0-0.7c0-1.8-0.2-3-0.6-3.8c-0.4-0.8-1-1.2-1.9-1.2c-0.4,0-0.8,0.1-1.1,0.3c-0.3,0.2-0.6,0.5-0.8,1
	c-0.2,0.5-0.4,1.1-0.5,1.9c-0.1,0.8-0.2,1.8-0.2,2.9v1.6H447.9z M443.1,175.4l5.7-8.1l3.3,2.7l-6.5,7.5L443.1,175.4z"/>
<path class="st1" d="M67.7,170.5h4.9V206h-4.9V170.5z M80.5,175.3c-0.9,0-1.6-0.3-2.2-0.8c-0.5-0.5-0.8-1.3-0.8-2.4
	c0-0.6,0.1-1.1,0.2-1.5c0.1-0.4,0.3-0.7,0.6-1c0.3-0.2,0.6-0.4,0.9-0.5c0.4-0.1,0.8-0.2,1.2-0.2c1,0,1.7,0.2,2.2,0.7
	c0.5,0.5,0.8,1.3,0.8,2.4c0,1-0.3,1.8-0.8,2.4C82.2,175,81.4,175.3,80.5,175.3z M77.9,179.1h4.9V206h-4.9V179.1z M88,170.5H93v7.2
	l-0.2,3.6l0,0c0.2-0.3,0.5-0.6,0.8-0.9c0.3-0.3,0.6-0.5,1-0.8c0.4-0.2,0.8-0.4,1.2-0.5c0.5-0.1,0.9-0.2,1.5-0.2c0.3,0,0.6,0,1,0.1
	c0.4,0.1,0.8,0.2,1.2,0.4c0.4,0.2,0.8,0.5,1.2,0.9c0.4,0.4,0.8,1,1.1,1.7c0.3,0.7,0.6,1.6,0.8,2.7c0.2,1.1,0.3,2.4,0.3,3.9v8.1
	c0,1.5-0.1,2.8-0.3,3.9c-0.2,1.1-0.5,2-0.8,2.7c-0.3,0.7-0.7,1.3-1.1,1.7c-0.4,0.4-0.8,0.7-1.3,0.9c-0.4,0.2-0.8,0.3-1.2,0.4
	c-0.4,0.1-0.8,0.1-1.1,0.1c-0.6,0-1.2-0.1-1.7-0.2c-0.5-0.2-0.9-0.4-1.3-0.6c-0.4-0.3-0.7-0.6-1-0.9c-0.3-0.3-0.5-0.7-0.8-1
	l-0.4,2.5H88V170.5z M93,200.6c0.1,0.2,0.2,0.5,0.4,0.7c0.2,0.2,0.3,0.4,0.5,0.6c0.2,0.2,0.4,0.3,0.7,0.4c0.3,0.1,0.6,0.2,0.9,0.2
	c0.4,0,0.7-0.1,1-0.2c0.3-0.1,0.6-0.4,0.8-0.7c0.2-0.4,0.4-0.9,0.5-1.5c0.1-0.6,0.2-1.5,0.2-2.5v-10.3c0-1-0.1-1.8-0.2-2.4
	c-0.1-0.6-0.3-1.1-0.5-1.5c-0.2-0.4-0.5-0.6-0.8-0.7c-0.3-0.1-0.6-0.2-1-0.2c-0.6,0-1.1,0.2-1.5,0.5c-0.4,0.4-0.7,0.8-1,1.3V200.6z
	 M107.4,179.1h3.6l0.4,2.7c0.5-1,1.2-1.8,1.9-2.3c0.7-0.5,1.4-0.8,2.2-0.8c1.4,0,2.5,0.4,3.1,1.3c0.7,0.9,1,2.2,1,3.9
	c0,0.2,0,0.5-0.1,0.8c0,0.3-0.1,0.6-0.1,1c-0.1,0.3-0.1,0.7-0.2,1c-0.1,0.3-0.2,0.6-0.3,0.9h-3.4v-2.5c0-0.5,0-1-0.1-1.3
	c-0.1-0.4-0.2-0.6-0.3-0.8c-0.1-0.2-0.3-0.4-0.4-0.4c-0.2-0.1-0.3-0.1-0.5-0.1c-0.4,0-0.8,0.1-1.1,0.4c-0.3,0.2-0.6,0.6-0.8,1.1V206
	h-4.9V179.1z M129.2,206.3c-1.2,0-2.2-0.2-3.1-0.6c-0.9-0.4-1.6-1.1-2.2-2c-0.6-0.9-1.1-2.1-1.4-3.5c-0.3-1.4-0.5-3.2-0.5-5.2v-5.1
	c0-1.7,0.1-3.2,0.4-4.4c0.3-1.2,0.6-2.2,1-3.1c0.4-0.8,0.9-1.5,1.4-2c0.5-0.5,1.1-0.8,1.7-1.1c0.6-0.3,1.1-0.4,1.7-0.5
	c0.6-0.1,1.1-0.1,1.6-0.1c0.9,0,1.7,0.1,2.6,0.4c0.8,0.3,1.5,0.7,2.2,1.4c0.6,0.6,1.1,1.5,1.5,2.6c0.4,1.1,0.6,2.4,0.6,4
	c0,0.5,0,1.1-0.1,1.7c0,0.6-0.1,1.1-0.1,1.7c-0.1,0.5-0.1,1.1-0.2,1.6c-0.1,0.5-0.2,1-0.3,1.4H127v2.7c0,1.2,0,2.2,0.1,3
	c0.1,0.8,0.2,1.4,0.4,1.9c0.2,0.5,0.5,0.8,0.9,1.1c0.4,0.2,0.8,0.3,1.4,0.3c0.3,0,0.6-0.1,0.9-0.2c0.3-0.1,0.5-0.3,0.7-0.6
	c0.2-0.3,0.4-0.7,0.5-1.1c0.1-0.5,0.2-1.1,0.2-1.8v-0.8h4.1v1c0,2.6-0.6,4.4-1.8,5.6C133.3,205.7,131.5,206.3,129.2,206.3z
	 M132,190.2c0-0.1,0-0.3,0-0.6c0-0.2,0-0.5,0-0.8c0-0.3,0-0.5,0-0.8c0-0.3,0-0.5,0-0.7c0-1.8-0.2-3-0.6-3.8c-0.4-0.8-1-1.2-1.9-1.2
	c-0.4,0-0.8,0.1-1.1,0.3c-0.3,0.2-0.6,0.5-0.8,1c-0.2,0.5-0.4,1.1-0.5,1.9c-0.1,0.8-0.2,1.8-0.2,2.9v1.6H132z"/>
<path class="st2" d="M400.1,117.5c20.7-9.7,33.8-12.2,51.5-12.1c17.6,0.1,34.8,4.6,50,12.9"/>
<path class="st3" d="M402.4,75.6v-4.9c0-7.7,6.3-14,14-14h67.3c7.7,0,14,6.3,14,14v4.9c0,7.7-6.3,14-14,14h-67.3
	C408.7,89.6,402.4,83.3,402.4,75.6z"/>
<circle class="st4" cx="420" cy="73.1" r="11.7"/>
<circle class="st4" cx="451.3" cy="73.2" r="11.7"/>
<rect x="431.4" y="118.9" transform="matrix(4.275959e-03 -1 1 4.275959e-03 296.3051 577.2302)" class="st5" width="13.1" height="41.9"/>
<path class="st6" d="M461.3,130.8c-0.2-0.3-0.3-0.7-0.5-1c-0.2-0.3-0.3-0.5-0.5-0.8h-44.8l-0.1,0.2l-0.3,0.4c-0.3,0.4-0.6,0.8-1,1.2
	c-0.1,0.2-0.3,0.4-0.5,0.6V150c0.1,0.2,0.3,0.3,0.5,0.4l0.3,0.3c0.1,0.1,0.3,0.2,0.4,0.4l0.2,0.2c0.2,0.2,0.4,0.3,0.6,0.5h3.4
	c0.1,0,0.2,0,0.4,0V150h1.6v1.8h10.4l0.1,0.1c0.2,0.1,0.3,0.3,0.4,0.4c0.2,0.1,0.4,0.4,0.6,0.6c0.2,0.1,0.3,0.2,0.4,0.4h9.6l1.6-1.4
	h10.1c0.1,0,0.2,0,0.3,0V150h1.6v1.8h4.2c0.1-0.1,0.2-0.3,0.3-0.4l1.1-1.4v-18.6l-0.1-0.1C461.5,131.1,461.4,130.9,461.3,130.8z
	 M420.5,145.3h-1.9v-1.5h1.9V145.3z M420.5,141.9h-1.9v-1.5h1.9V141.9z M420.5,138.9h-1.9v-1.5h1.9V138.9z M420.5,135.4h-1.9v-1.5
	h1.9V135.4z M441.4,133.9h1.9v1.5h-1.9V133.9z M441.4,137.3h1.9v1.5h-1.9V137.3z M441.4,140.4h1.9v1.5h-1.9V140.4z M438.8,133.9h1.9
	v1.5h-1.9V133.9z M438.8,137.3h1.9v1.5h-1.9V137.3z M438.8,140.4h1.9v1.5h-1.9V140.4z M436.1,133.9h1.9v1.5h-1.9V133.9z
	 M436.1,137.3h1.9v1.5h-1.9V137.3z M436.1,140.4h1.9v1.5h-1.9V140.4z M432.7,133.9h1.9v1.5h-1.9V133.9z M432.7,137.3h1.9v1.5h-1.9
	V137.3z M432.7,140.4h1.9v1.5h-1.9V140.4z M429.2,133.9h1.9v1.5h-1.9V133.9z M429.2,137.3h1.9v1.5h-1.9V137.3z M429.2,140.4h1.9v1.5
	h-1.9V140.4z M425.8,133.9h1.9v1.5h-1.9V133.9z M425.8,137.3h1.9v1.5h-1.9V137.3z M425.8,140.4h1.9v1.5h-1.9V140.4z M422,133.9h1.9
	v1.5H422V133.9z M422,137.3h1.9v1.5H422V137.3z M422,140.4h1.9v1.5H422V140.4z M439.5,145.3H422v-1.5h17.5V145.3z M443.7,145.3h-3.4
	v-1.5h3.4V145.3z M455.2,133.9h1.9v1.5h-1.9V133.9z M452.5,133.9h1.9v1.5h-1.9L452.5,133.9z M452.1,145.7h-1.9v-1.9h1.9V145.7z
	 M452.1,138.9h-1.9v-1.5h1.9V138.9z M452.1,135.4h-1.9v-1.5h1.9V135.4z M452.5,137.3h1.9v1.5h-1.9L452.5,137.3z M455.2,145.7h-1.9
	v-1.9h1.9V145.7z M455.2,142.7h-1.9v-1.6h1.9V142.7z M455.2,137.4h1.9v1.5h-1.9V137.4z M457.8,145.7h-1.9v-1.9h1.9L457.8,145.7z"/>
<path class="st5" d="M485,149.3l-1.2,1.4l-0.9,0.7l-2,0.3l-2.5-0.7l-1.9-2.1l-1.9-2.3l0-4.6l1.6-1.4l0-2l-1.1-1.4l0-2.7l1.4-0.5
	l0-1.1l3.6-1.8l0,1.2l2.1,0l0-1.2l3.5,2.1l0,3l0.7,0.5l0.9,1.8l1.1,2.5l-0.7,3.5l-0.9,2.7L485,149.3z"/>
<path d="M488.6,140.7L488.6,140.7l-0.1-0.2c0,0-0.9-1.5-1-2.6l0-0.1l-1.3-1.9l0-3l-4.3-2.5l0,1.5l-0.5,0l0-4.7l-0.7,0l0,4.7l-0.3,0
	l0-1.4l-4.3,2.1l0,0.8l-1.3,0.9l0,3.1l1.1,1.1l0,1.1l-1.7,2.3l0,4.8l4,4.3l0.1,0.1c0,0,1.2,0.8,2.8,0.8l0,0c0.9,0,1.8-0.2,2.7-0.7
	l0,0l2.6-2.8l0-0.1C486.4,148.2,488.7,144.5,488.6,140.7L488.6,140.7z M487.1,139.2c0,0.4-0.2,2.9-1.4,5.3c0.3-2.8,0.4-5.7,0.4-7.2
	l0.7,1C486.9,138.5,487,138.8,487.1,139.2L487.1,139.2z M485.3,140.9c0,0.5-0.1,1-0.1,1.5l-8.4,3.7c-0.1-0.6-0.2-1-0.2-1.3
	L485.3,140.9z M476.9,146.8l8.2-3.6c0,0.3-0.1,0.6-0.1,0.8l-7.9,3.5C477.1,147.3,477,147.1,476.9,146.8L476.9,146.8z M482.6,131.7
	l2.9,1.7l0,2.7c0,1,0,2.4-0.1,4.1l-5,2.2l0-0.8l2.2-1.2L482.6,131.7L482.6,131.7z M481.9,132.7l0,7.3l-1.5,0.8l0-8.1L481.9,132.7z
	 M475.5,137.2l0-2.4l0.6-0.4l0,2.3l0.7,0l0-3.5l2.8-1.4l0,11l-3.1,1.4l0-5.7L475.5,137.2z M474.9,142.3l1-1.3l0,3.7c0,0,0,0,0,0h0
	c0,0.1,0.2,1.9,1,4l-1.9-2.1L474.9,142.3L474.9,142.3z M481,151.2L481,151.2c-1.2,0-2.2-0.5-2.4-0.6l-0.2-0.3
	c-0.4-0.7-0.7-1.5-1-2.2l7.6-3.3c-0.3,2.5-0.7,4.7-1.4,5.5l-0.3,0.3C482.6,151,481.8,151.3,481,151.2L481,151.2z M485.8,148
	l-0.8,0.9c0.2-0.7,0.4-1.6,0.5-2.6c1.4-2,1.9-4.4,2.2-5.8c0.1,0.2,0.2,0.3,0.2,0.4C487.9,144.2,486,147.6,485.8,148L485.8,148z"/>
<path d="M478.3,133.4l0.7,0l0,5.4l-0.7,0L478.3,133.4z"/>
<path d="M478.3,139.3l0.7,0l0,1.5l-0.7,0L478.3,139.3z"/>
<path d="M480.9,147.8c-0.9,0-1.6,0.7-1.6,1.6s0.7,1.6,1.6,1.6c0.9,0,1.6-0.7,1.6-1.6C482.5,148.5,481.8,147.8,480.9,147.8z
	 M480.9,150.2c-0.5,0-0.9-0.4-0.9-0.9c0-0.5,0.4-0.9,0.9-0.9c0.5,0,0.9,0.4,0.9,0.9S481.4,150.2,480.9,150.2z"/>
<path d="M483.9,135.4l0.4,0l0-0.7l-1.1,0l0,2.9l0.7,0L483.9,135.4z"/>
<path class="st7" d="M339.1,59c8.2-8.9,18.6-15,22.8-16.9l1.1,8.7l5.9,1.3l7.6-4.1l3.3-1.9l1.1,0.6v2.4L378.6,74l-1.9,36l-0.9,28.4
	l-0.6,1.5l-3.5-0.6l-3-0.9l-0.6,1.9l-1.1,0.6l-23.4-3.2v-0.7c1-7.4-2.9-18.2-5-22.6l-1.7-0.7l-0.9-1.5
	C337.3,108.6,338.6,75.2,339.1,59z"/>
<path class="st7" d="M310.7,133.2l8.4-0.6l6.9,0.6l5.2-0.9l6.3,10.2l0.4,1.7l3.5-0.4c5.8-7.3,0.6-22.8-2.8-29.7
	c-11.7-4.2-31.4-1.7-39.7,0l-4.1,10.8c-2.8,16.2,0.9,19.6,3.2,19.3l2.6-1.7l5.9-9.8L310.7,133.2z"/>
<path d="M381.3,46.5c-0.2-0.3-0.5-0.6-0.9-0.7c-0.8-0.1-1.5,0.2-2.1,0.7l-0.1,0.1c-1.2,0.7-2.4,1.4-3.6,2c-1.3,0.7-2.7,1.4-4.1,2.1
	l-1,0.5c-1.9-0.4-3.9-0.8-5.8-1.1h-0.2c-0.3-2.4-0.5-4.8-0.8-7.1v0c0-0.6-0.3-1.1-0.8-1.3c-0.4-0.1-0.7,0-1,0.2
	c-8.1,4.2-15.5,9.7-21.9,16.3c-0.4,0.4-0.7,0.9-0.7,1.4v2.6v1.5c0,0.5,0,1.2-0.1,1.9c0,0.8-0.1,1.6-0.1,2.4
	c-0.1,3.6-0.3,7.4-0.5,12.4c-0.2,4.2-0.4,8.4-0.7,12.6c-0.3,4.2-0.5,8.5-0.8,12.6c-0.2,2.1-0.3,4.2-0.5,6.4c-0.3-0.1-0.7-0.2-1-0.3
	c-1.1-0.2-2.2-0.2-3.4,0c-0.1,0-0.2,0.1-0.2,0.2v0.2c-0.8-0.1-1,0-1.2,0.1c-0.9-0.2-2-0.4-3.4-0.5h-0.3c-3.6-0.4-7.5-0.4-7.6-0.4
	s-3.9,0-7.6,0.4h-0.3c-1.3,0.1-2.4,0.3-3.4,0.5c-0.1,0-0.3-0.2-1.1-0.1v-0.2c0-0.1-0.1-0.2-0.2-0.2c-1.1-0.2-2.2-0.2-3.4,0
	c-1,0.2-2,0.6-2.9,1.2c-0.1,0.1-0.1,0.1-0.1,0.2v0.2h-0.1c-0.3,0.1-0.5,0.2-0.7,0.2l0,0c-0.3,0.1-0.6,0.3-0.8,0.7
	c-0.9,1.9-1.7,3.8-2.4,5.7c-0.9,2.8-1.6,5.7-2.1,8.6c-0.8,3.9-0.8,7.9-0.2,11.8c0.2,1.8,1.2,3.3,2.7,4.3c0.3,0.2,0.7,0.3,1,0.3
	l2.3,0.4h0.3c0.7,0,1.3-0.4,1.6-0.9c1-1.7,1.8-3.5,2.5-5.3c0.4-0.9,0.7-1.8,1.2-2.8v0c0.3-0.7,0.7-1.4,1.3-1.9
	c0.8-0.5,1.7-0.8,2.6-0.7c0.6,0.2,1.2,0.3,1.8,0.3h16.2c0.6,0,1.2-0.1,1.8-0.3c0.9,0,1.8,0.2,2.5,0.7c0.6,0.5,1,1.2,1.3,2
	c0.4,0.9,0.8,1.8,1.2,2.8h0c0.7,1.8,1.5,3.6,2.5,5.3c0.3,0.6,0.9,0.9,1.6,0.9c0.1,0,0.2,0,0.3,0l2.3-0.3l0,0c0.4,0,0.7-0.2,1-0.3
	c0.7-0.4,1.4-1.1,1.8-1.8h0.8c2.9,0.1,6.6,0.1,10.1,0.1c7.1,0,13.7-0.1,13.8-0.1c0.5,0,5,0.1,6.8-1.9h0.2l0,0c0.3,0,0.6-0.1,0.9-0.3
	c0.4-0.4,0.6-0.9,0.5-1.4v-2c0.2-6.2,0.4-12.4,0.7-18.7c1-26.4,2.4-48.1,4.5-68.4c0-0.2,0-0.4,0.1-0.6l0,0
	C381.8,48.3,381.7,47.4,381.3,46.5z M370.5,92.1c0-0.3,0.3-0.6,0.6-0.6c0.2,0,0.3,0.1,0.4,0.2c0.1,0.1,0.2,0.3,0.2,0.4v3.4
	c0,0.2-0.1,0.3-0.2,0.4c-0.1,0.1-0.3,0.2-0.4,0.2c-0.3,0-0.6-0.3-0.6-0.6V92.1z M370.5,98.9c0-0.3,0.3-0.6,0.6-0.6
	c0.3,0,0.6,0.3,0.6,0.6v2.4c0,0.3-0.3,0.6-0.6,0.6c-0.3,0-0.6-0.3-0.6-0.6V98.9z M370.5,127.4L370.5,127.4c0-0.3,0.3-0.6,0.6-0.6
	c0.2,0,0.3,0.1,0.4,0.2c0.1,0.1,0.2,0.3,0.2,0.4v4.2c0,0.2-0.1,0.3-0.2,0.4c-0.1,0.1-0.3,0.2-0.4,0.2c-0.3,0-0.6-0.3-0.6-0.6V127.4z
	 M337.4,105.6c0.3-4.1,0.6-8.3,0.8-12.6c0.2-4.3,0.5-8.4,0.7-12.6c0.2-5,0.4-8.9,0.5-12.5c0-0.8,0-1.6,0.1-2.4
	c0.1-0.8,0-1.3,0.1-1.9c0.1-0.6,0-1.1,0-1.6v-2.5l0,0c0-0.3,0.2-0.5,0.4-0.7c6.3-6.5,13.6-11.9,21.6-16h0.1c0,0.1,0,0.1,0,0.2
	c0.9,8.3,1.8,16.6,2.5,24.7l3.6,57.2c0.1,4.4,0.2,9,0.3,13.6v0.2l0,0c0,0.4,0,0.7-0.2,1.1c-0.2,0.3-0.7,0.4-1.5,0.3h-0.1
	c-7.3-0.8-14.5-1.7-21.8-2.9c0.2-3,0-6-0.5-8.9c-0.5-2.9-1.2-5.8-2.1-8.6c-0.7-2-1.5-3.9-2.4-5.7c-0.2-0.3-0.4-0.6-0.8-0.7l-0.7-0.2
	h-0.1V113c0-0.1-0.1-0.2-0.1-0.2c-0.1-0.1-0.4-0.2-0.7-0.4C337.1,110.1,337.3,107.9,337.4,105.6L337.4,105.6z M310.1,113.1
	c0.1-0.1,0.3-0.2,0.9-0.3h0.2c3.6-0.4,7.4-0.4,7.5-0.4c0.1,0,3.9,0,7.5,0.4h0.2c0.6,0.1,0.8,0.2,0.9,0.3c0.1,0.2,0.1,0.5,0,0.7
	l-0.2,0.9l-0.3,1.4l-0.3,1.3c-0.1,0.7-0.3,1.3-0.4,2c-0.2,1-0.4,1.9-1.2,2.2v0c-0.5,0.2-1,0.3-1.4,0.2h-9.5c-0.5,0.1-1,0-1.5-0.2
	c-0.7-0.4-0.9-1.2-1.2-2.2c-0.1-0.7-0.3-1.3-0.4-1.9l-0.3-1.4c-0.2-0.8-0.3-1.6-0.5-2.4l0,0C310,113.6,310,113.3,310.1,113.1
	L310.1,113.1z M306,125.4l-0.3,0.4v0c-2.1,3.2-3.9,6.6-5.2,10.1c-0.9,2.1-1.6,4.3-2.2,6.5l-0.1,0.2c-0.1,0.4-0.3,0.8-0.6,0.9v0
	c-0.1,0-0.2,0-0.2,0c-0.2,0-0.4-0.1-0.5-0.2c-1.2-0.8-1.9-2.1-2.1-3.5c-0.7-3.8-0.6-7.6,0.2-11.3c0.5-2.8,1.2-5.6,2.1-8.3
	c0.6-2,1.4-3.8,2.4-5.7c0.2-0.1,0.4-0.1,0.7-0.2c2-0.5,4-0.8,6.1-1.1h0.4c0.2,0,0.3,0,0.5,0h0.1c0.4,0.3,0.6,0.7,0.7,1.2
	c0.2,0.5,0.3,1.1,0.4,1.6l0.1,0.4l0.6,2.7v0c0.3,1,0.2,2.1-0.2,3c-0.3,0.4-0.7,0.8-1,1.2l-0.4,0.5
	C306.8,124.5,306.4,124.9,306,125.4z M310.7,132.5c-0.5,0-1-0.1-1.5-0.3c-0.8-0.3-1.5-0.9-2-1.6c-0.9-1.2-1-2.8-0.4-4.2l0.2-0.3
	c0.3-0.5,0.7-0.9,1.1-1.3c0.7-0.6,1.7-0.9,2.6-0.9c1.2-0.1,2.3,0.4,3.2,1.2c0.9,0.8,1.3,1.9,1.3,3.1c0,1.2-0.5,2.3-1.3,3.1
	C313,132.1,311.8,132.6,310.7,132.5z M319.7,131.1l-1.8,0c-0.3,0-0.6-0.3-0.6-0.6s0.3-0.6,0.6-0.6h1.8c0.3,0,0.6,0.3,0.6,0.6
	S320,131.1,319.7,131.1L319.7,131.1z M328.3,132.2L328.3,132.2c-0.5,0.2-1,0.3-1.5,0.3c-1.1,0-2.2-0.5-3-1.3c-0.8-0.8-1.3-1.9-1.3-3
	c0-1.1,0.5-2.2,1.3-3c0.8-0.8,1.9-1.3,3-1.3c0.9,0,1.9,0.3,2.6,0.9c0.4,0.4,0.7,0.9,1.1,1.4l0.2,0.2v0c0.3,0.6,0.4,1.2,0.4,1.8
	c0,0.9-0.3,1.7-0.8,2.4C329.9,131.3,329.2,131.9,328.3,132.2L328.3,132.2z M340.7,143.4L340.7,143.4c-0.2,0.1-0.4,0.2-0.6,0.2h-0.2
	c-0.3-0.1-0.5-0.5-0.6-0.9v-0.1l-0.1-0.4c-0.1-0.4-0.3-0.9-0.4-1.3c-0.3-0.9-0.6-1.9-0.9-2.8c-0.2-0.6-0.5-1.3-0.7-1.9L337,136
	c-0.6-1.3-1.2-2.7-1.8-4.1l-0.2-0.4l-0.3-0.7c-0.2-0.3-0.3-0.6-0.5-0.9l-0.2-0.4c-0.2-0.4-0.4-0.8-0.7-1.2c-0.2-0.3-0.5-0.7-0.7-1.2
	c-0.2-0.4-0.5-0.8-0.8-1.2v-0.1l-0.3-0.4c-0.4-0.5-0.8-1-1.2-1.5l-0.4-0.5c-0.3-0.4-0.6-0.7-1-1.2c-0.4-1-0.5-2-0.2-3
	c0.2-0.9,0.4-1.9,0.6-2.8l0.1-0.5c0.1-0.5,0.2-1.1,0.4-1.6c0.1-0.5,0.3-0.9,0.7-1.2h1c1.7,0.2,3.1,0.4,4.1,0.6l1.2,0.2
	c0.3,0.1,0.6,0.1,0.8,0.2l0.6,0.2h0c0,0,0.1,0,0.1,0.1c0.9,1.8,1.7,3.7,2.4,5.6c0.9,2.7,1.6,5.5,2.1,8.3c0.4,2.1,0.6,4.3,0.6,6.5
	c0,0.7,0,1.4-0.1,2c0,0.4,0,0.8-0.1,1.2c-0.1,0.4-0.2,1.1-0.3,1.6l0,0c-0.1,0.5-0.2,1-0.4,1.4c-0.2,0.4-0.4,0.8-0.7,1.2
	C341.4,142.8,341.1,143.1,340.7,143.4L340.7,143.4z M367.9,141.5c-0.2,0-15.2,0.3-23.9,0h-0.3l0,0c0.1-0.4,0.3-0.8,0.4-1.3
	c0.1-0.5,0.2-1.1,0.3-1.7c7.3,1.2,14.6,2.1,21.9,2.8c0.2,0,0.4,0,0.6,0c0.7,0.1,1.5-0.2,2-0.8c0.3-0.4,0.4-0.9,0.4-1.3l0.2,0.1
	l1.4,0.4c0.8,0.3,1.6,0.5,2.4,0.7C371.5,141.2,369.7,141.5,367.9,141.5L367.9,141.5z M380.4,49.2c0,0.2,0,0.4-0.1,0.6
	c-2.1,20.3-3.6,42.1-4.5,68.5c-0.2,6.2-0.5,12.4-0.7,18.7v2l0,0c0,0.2,0,0.4-0.1,0.5h-0.2c-0.6-0.1-1.3-0.3-1.9-0.5
	c0.5-0.1,1.2-0.5,1.2-1.7c0-2.4,0-4.7,0.1-7c0-4.1,0.1-8.3,0.2-12.5c0.1-4.1,0.3-8.4,0.4-12.6c0.1-2.9,0.2-5.8,0.4-8.7l0.3-5.3
	c0.2-3.7,0.3-7.5,0.5-11.2L376,77c0.1-3.1,0.3-6.3,0.3-9.5c0-2,0.1-4.1,0-6.1c0-1.3-0.2-2.6-0.5-3.9c-0.3-1.5-0.9-2.8-1.7-4.1
	c-0.7-0.9-1.6-1.5-2.6-1.8c1.3-0.7,2.6-1.3,3.9-2c1.3-0.7,2.4-1.3,3.6-2l0.1-0.1c0.3-0.2,1-0.6,1.2-0.5c0,0,0.1,0,0.1,0.1h0
	C380.6,47.7,380.6,48.5,380.4,49.2L380.4,49.2z"/>
<path d="M312.8,127.9c0,1.2-0.9,2.1-2.1,2.1c-1.2,0-2.1-0.9-2.1-2.1s0.9-2.1,2.1-2.1C311.8,125.8,312.8,126.7,312.8,127.9z"/>
<path d="M303.6,117.1h-0.1c-0.3,0-0.5,0-0.8,0h-0.1c-0.3,0-0.5,0.3-0.5,0.6v0.8c0,0.1,0.1,0.3,0.2,0.4l0.6,0.6l0,0
	c0.1,0.1,0.3,0.1,0.4,0l0.6-0.6l0,0c0.1-0.1,0.2-0.2,0.2-0.3l0.1-0.8C304.2,117.5,304,117.2,303.6,117.1L303.6,117.1z"/>
<path d="M303.9,123l-0.6-0.6h0c0-0.1-0.1-0.1-0.2-0.1c-0.1,0-0.1,0-0.2,0.1l-0.6,0.6c-0.1,0.1-0.2,0.2-0.2,0.4v0.8
	c0,0.2,0,0.3,0.2,0.5c0.1,0.1,0.2,0.2,0.4,0.2h0.1c0.3,0,0.5,0,0.8,0h0.1c0.2,0,0.3-0.1,0.4-0.2c0.1-0.1,0.1-0.3,0.1-0.5v-0.8
	C304.1,123.2,304,123.1,303.9,123z"/>
<path d="M306.8,120.1c-0.1-0.1-0.3-0.2-0.4-0.2h-0.8h0c-0.1,0-0.3,0.1-0.4,0.2l-0.6,0.6h0c-0.1,0-0.1,0.1-0.1,0.2
	c0,0.1,0,0.1,0.1,0.2l0.6,0.6l0,0c0.1,0.1,0.2,0.2,0.4,0.2l0.8,0.1h0c0.2,0,0.3,0,0.5-0.2c0.1-0.1,0.2-0.2,0.2-0.4v-0.1
	c0-0.3,0-0.5,0-0.8v-0.1C307,120.3,306.9,120.2,306.8,120.1z"/>
<path d="M301.1,120.2c-0.1-0.1-0.2-0.2-0.4-0.2h-0.8h0c-0.3,0-0.6,0.2-0.7,0.5v0.1c0,0.3,0,0.5,0,0.8v0.1c0,0.3,0.3,0.5,0.6,0.5
	l0.8-0.1c0.1,0,0.3-0.1,0.4-0.2l0.6-0.6v0c0.1-0.1,0.1-0.3,0-0.4L301.1,120.2z"/>
<path d="M326.8,125.8c-0.8,0-1.6,0.5-1.9,1.3c-0.3,0.8-0.1,1.7,0.5,2.3c0.6,0.6,1.5,0.8,2.3,0.5c0.8-0.3,1.3-1.1,1.3-1.9
	c0-0.6-0.2-1.1-0.6-1.5C327.9,126,327.4,125.8,326.8,125.8z"/>
<path d="M334.4,116.5c-0.7,0.1-1.3,0.7-1.3,1.4s0.6,1.3,1.3,1.4c0.3,0,0.6-0.1,0.8-0.3c0.4-0.3,0.6-0.7,0.6-1.1c0-0.4-0.1-0.7-0.4-1
	C335.1,116.6,334.7,116.4,334.4,116.5z"/>
<path d="M334.8,122.8c-0.2-0.1-0.3-0.1-0.5-0.1c-0.8,0-1.4,0.6-1.4,1.4c0,0.8,0.6,1.4,1.4,1.4h0.2c0.6-0.1,1.1-0.6,1.1-1.2
	C335.8,123.7,335.4,123.1,334.8,122.8L334.8,122.8z"/>
<path d="M337.5,119.6c-0.4,0-0.7,0.1-1,0.4c-0.3,0.3-0.4,0.6-0.4,1c0,0.1,0,0.2,0,0.4c0.2,0.7,0.8,1.1,1.5,1
	c0.7-0.1,1.2-0.7,1.2-1.4C338.8,120.2,338.2,119.6,337.5,119.6z"/>
<path d="M331.2,119.6c-0.7,0.1-1.3,0.7-1.3,1.4s0.6,1.3,1.3,1.4c0.4,0,0.8-0.1,1.1-0.4c0.3-0.3,0.5-0.6,0.5-1c0-0.4-0.2-0.8-0.5-1
	C332,119.7,331.6,119.6,331.2,119.6z"/>
<path class="st2" d="M107,117.5c20.7-9.7,33.8-12.2,51.5-12.1c17.6,0.1,34.8,4.6,50,12.9"/>
<path class="st4" d="M108.8,75.6v-4.9c0-8,6.5-14.5,14.5-14.5h67.3c8,0,14.5,6.5,14.5,14.5v4.9c0,8-6.5,14.5-14.5,14.5h-67.3
	C115.3,90.1,108.8,83.6,108.8,75.6z"/>
<circle class="st8" cx="126.9" cy="73.1" r="11.7"/>
<circle class="st8" cx="158.2" cy="73.2" r="11.7"/>
<path class="st6" d="M168.3,130.8c-0.2-0.3-0.3-0.7-0.5-1s-0.3-0.5-0.5-0.8h-44.8l-0.1,0.2l-0.3,0.4c-0.3,0.4-0.6,0.8-1,1.2
	c-0.1,0.2-0.3,0.4-0.5,0.6V150c0.1,0.2,0.3,0.3,0.5,0.4l0.3,0.3c0.1,0.1,0.3,0.2,0.4,0.4l0.2,0.2c0.2,0.2,0.4,0.3,0.6,0.5h3.4
	c0.1,0,0.2,0,0.4,0V150h1.6v1.8h10.4l0,0.1c0.2,0.1,0.3,0.3,0.4,0.4c0.2,0.1,0.4,0.4,0.6,0.6c0.2,0.1,0.3,0.2,0.4,0.4h9.6l1.6-1.4
	h10.1c0.1,0,0.2,0,0.3,0V150h1.6v1.8h4.2c0.1-0.1,0.2-0.3,0.3-0.4l1.1-1.4v-18.6l-0.1-0.1C168.5,131.1,168.4,130.9,168.3,130.8z
	 M127.5,145.3h-1.9v-1.5h1.9V145.3z M127.5,141.9h-1.9v-1.5h1.9V141.9z M127.5,138.9h-1.9v-1.5h1.9V138.9z M127.5,135.4h-1.9v-1.5
	h1.9V135.4z M148.4,133.9h1.9v1.5h-1.9V133.9z M148.4,137.3h1.9v1.5h-1.9V137.3z M148.4,140.4h1.9v1.5h-1.9V140.4z M145.8,133.9h1.9
	v1.5h-1.9V133.9z M145.8,137.3h1.9v1.5h-1.9V137.3z M145.8,140.4h1.9v1.5h-1.9V140.4z M143.1,133.9h1.9v1.5h-1.9V133.9z
	 M143.1,137.3h1.9v1.5h-1.9V137.3z M143.1,140.4h1.9v1.5h-1.9V140.4z M139.7,133.9h1.9v1.5h-1.9V133.9z M139.7,137.3h1.9v1.5h-1.9
	V137.3z M139.7,140.4h1.9v1.5h-1.9V140.4z M136.2,133.9h1.9v1.5h-1.9V133.9z M136.2,137.3h1.9v1.5h-1.9V137.3z M136.2,140.4h1.9v1.5
	h-1.9V140.4z M132.8,133.9h1.9v1.5h-1.9V133.9z M132.8,137.3h1.9v1.5h-1.9V137.3z M132.8,140.4h1.9v1.5h-1.9V140.4z M129,133.9h1.9
	v1.5H129V133.9z M129,137.3h1.9v1.5H129V137.3z M129,140.4h1.9v1.5H129V140.4z M146.5,145.3H129v-1.5h17.5V145.3z M150.7,145.3h-3.4
	v-1.5h3.4V145.3z M162.2,133.9h1.9v1.5h-1.9V133.9z M159.5,133.9h1.9v1.5h-1.9L159.5,133.9z M159.1,145.7h-1.9v-1.9h1.9V145.7z
	 M159.1,138.9h-1.9v-1.5h1.9V138.9z M159.1,135.4h-1.9v-1.5h1.9V135.4z M159.5,137.3h1.9v1.5h-1.9L159.5,137.3z M162.2,145.7h-1.9
	v-1.9h1.9V145.7z M162.2,142.7h-1.9v-1.6h1.9V142.7z M162.2,137.4h1.9v1.5h-1.9V137.4z M164.8,145.7h-1.9v-1.9h1.9L164.8,145.7z"/>
<path d="M195.5,140.7L195.5,140.7l-0.1-0.2c0,0-0.9-1.5-1-2.6l0-0.1l-1.3-1.9l0-3l-4.3-2.5l0,1.5l-0.5,0l0-4.7l-0.7,0l0,4.7l-0.3,0
	l0-1.4l-4.3,2.1l0,0.8l-1.3,0.9l0,3.1l1.1,1.1l0,1.1l-1.7,2.3l0,4.8l4,4.3l0.1,0.1c0,0,1.2,0.8,2.8,0.8l0,0c0.9,0,1.8-0.2,2.7-0.7
	l0,0l2.6-2.8l0-0.1C193.4,148.2,195.6,144.5,195.5,140.7L195.5,140.7z M194,139.2c0,0.4-0.2,2.9-1.4,5.3c0.3-2.8,0.4-5.7,0.4-7.2
	l0.7,1C193.8,138.5,193.9,138.8,194,139.2L194,139.2z M192.2,140.9c0,0.5-0.1,1-0.1,1.5l-8.4,3.7c-0.1-0.6-0.2-1-0.2-1.3
	L192.2,140.9z M183.9,146.8l8.2-3.6c0,0.3-0.1,0.6-0.1,0.8l-7.9,3.5C184,147.3,183.9,147.1,183.9,146.8L183.9,146.8z M189.5,131.7
	l2.9,1.7l0,2.7c0,1,0,2.4-0.1,4.1l-5,2.2l0-0.8l2.2-1.2L189.5,131.7L189.5,131.7z M188.8,132.7l0,7.3l-1.5,0.8l0-8.1L188.8,132.7z
	 M182.4,137.2l0-2.4l0.6-0.4l0,2.3l0.7,0l0-3.5l2.8-1.4l0,11l-3.1,1.4l0-5.7L182.4,137.2z M181.8,142.3l1-1.3l0,3.7c0,0,0,0,0,0h0
	c0,0.1,0.2,1.9,1,4l-1.9-2.1L181.8,142.3L181.8,142.3z M187.9,151.2C187.9,151.2,187.9,151.2,187.9,151.2c-1.2,0-2.2-0.5-2.4-0.6
	l-0.2-0.3c-0.4-0.7-0.7-1.4-1-2.2l7.6-3.3c-0.3,2.5-0.7,4.7-1.4,5.5l-0.3,0.3C189.5,151,188.7,151.3,187.9,151.2L187.9,151.2z
	 M192.7,148l-0.8,0.9c0.2-0.7,0.4-1.6,0.5-2.6c1.4-2,1.9-4.4,2.2-5.8c0.1,0.2,0.2,0.3,0.2,0.4C194.8,144.2,192.9,147.6,192.7,148
	L192.7,148z"/>
<path d="M185.2,133.4l0.7,0l0,5.4l-0.7,0L185.2,133.4z"/>
<path d="M185.2,139.3l0.7,0l0,1.5l-0.7,0L185.2,139.3z"/>
<path d="M187.8,147.8c-0.9,0-1.6,0.7-1.6,1.6c0,0.9,0.7,1.6,1.6,1.6c0.9,0,1.6-0.7,1.6-1.6C189.4,148.5,188.7,147.8,187.8,147.8z
	 M187.8,150.2c-0.5,0-0.9-0.4-0.9-0.9c0-0.5,0.4-0.9,0.9-0.9c0.5,0,0.9,0.4,0.9,0.9C188.7,149.8,188.3,150.2,187.8,150.2z"/>
<path d="M190.8,135.4l0.4,0l0-0.7l-1.1,0l0,2.9l0.7,0L190.8,135.4z"/>
<path class="st1" d="M88.3,46.5c-0.2-0.3-0.5-0.6-0.9-0.7c-0.8-0.1-1.5,0.2-2.1,0.7l-0.1,0.1c-1.2,0.7-2.4,1.4-3.6,2
	c-1.3,0.7-2.7,1.4-4.1,2.1l-1,0.5c-1.9-0.4-3.9-0.8-5.8-1.1h-0.2c-0.3-2.4-0.5-4.8-0.8-7.1v0c0-0.6-0.3-1.1-0.8-1.3
	c-0.4-0.1-0.7,0-1,0.2C59.8,46,52.4,51.5,46.1,58c-0.4,0.4-0.7,0.9-0.7,1.4v2.6v1.5c0,0.5,0,1.2-0.1,1.9c0,0.8-0.1,1.6-0.1,2.4
	c-0.1,3.6-0.3,7.4-0.5,12.4c-0.2,4.2-0.4,8.4-0.7,12.6c-0.3,4.2-0.5,8.5-0.8,12.6c-0.2,2.1-0.3,4.2-0.5,6.4c-0.3-0.1-0.7-0.2-1-0.3
	c-1.1-0.2-2.2-0.2-3.4,0c-0.1,0-0.2,0.1-0.2,0.2v0.2c-0.8-0.1-1,0-1.2,0.1c-0.9-0.2-2-0.4-3.3-0.5h-0.3c-3.6-0.4-7.5-0.4-7.6-0.4
	c-0.1,0-3.9,0-7.6,0.4h-0.3c-1.3,0.1-2.4,0.3-3.4,0.5c-0.1,0-0.3-0.2-1.1-0.1v-0.2c0-0.1-0.1-0.2-0.2-0.2c-1.1-0.2-2.2-0.2-3.3,0
	c-1,0.2-2,0.6-2.9,1.2c-0.1,0.1-0.1,0.1-0.1,0.2v0.2H6.6c-0.3,0.1-0.5,0.2-0.7,0.2l0,0c-0.3,0.1-0.6,0.3-0.8,0.7
	c-0.9,1.9-1.7,3.8-2.4,5.7c-0.9,2.8-1.6,5.7-2.1,8.6c-0.8,3.9-0.8,7.9-0.2,11.8c0.2,1.8,1.2,3.3,2.7,4.3c0.3,0.2,0.7,0.3,1,0.3
	l2.3,0.4h0.3c0.7,0,1.3-0.4,1.6-0.9c1-1.7,1.8-3.5,2.5-5.3c0.4-0.9,0.7-1.8,1.2-2.8v0c0.3-0.7,0.7-1.4,1.3-1.9
	c0.8-0.5,1.7-0.8,2.6-0.7c0.6,0.2,1.2,0.3,1.8,0.3h16.2c0.6,0,1.2-0.1,1.8-0.3c0.9,0,1.8,0.2,2.5,0.7c0.6,0.5,1,1.2,1.3,2
	c0.4,0.9,0.8,1.8,1.2,2.8h0c0.7,1.8,1.5,3.6,2.5,5.3c0.3,0.6,0.9,0.9,1.6,0.9c0.1,0,0.2,0,0.3,0l2.3-0.3l0,0c0.4,0,0.7-0.2,1-0.3
	c0.7-0.4,1.4-1.1,1.8-1.8h0.8c2.9,0.1,6.6,0.1,10.1,0.1c7.1,0,13.7-0.1,13.8-0.1c0.5,0,5,0.1,6.8-1.9h0.2h0c0.3,0,0.6-0.1,0.9-0.3
	c0.4-0.4,0.6-0.9,0.5-1.4v-2c0.2-6.2,0.4-12.4,0.7-18.7c1-26.4,2.4-48.1,4.5-68.4c0-0.2,0-0.4,0.1-0.6v0
	C88.7,48.3,88.6,47.4,88.3,46.5L88.3,46.5z M77.4,92.1c0-0.3,0.3-0.6,0.6-0.6c0.2,0,0.3,0.1,0.4,0.2c0.1,0.1,0.2,0.3,0.2,0.4v3.4
	c0,0.2-0.1,0.3-0.2,0.4c-0.1,0.1-0.3,0.2-0.4,0.2c-0.3,0-0.6-0.3-0.6-0.6V92.1z M77.4,98.9c0-0.3,0.3-0.6,0.6-0.6
	c0.3,0,0.6,0.3,0.6,0.6v2.4c0,0.3-0.3,0.6-0.6,0.6c-0.3,0-0.6-0.3-0.6-0.6V98.9z M77.4,127.4L77.4,127.4c0-0.3,0.3-0.6,0.6-0.6
	c0.2,0,0.3,0.1,0.4,0.2c0.1,0.1,0.2,0.3,0.2,0.4v4.2c0,0.2-0.1,0.3-0.2,0.4c-0.1,0.1-0.3,0.2-0.4,0.2c-0.3,0-0.6-0.3-0.6-0.6V127.4z
	 M44.3,105.6c0.3-4.1,0.6-8.3,0.8-12.6c0.2-4.3,0.5-8.4,0.7-12.6c0.2-5,0.4-8.9,0.5-12.5c0-0.8,0-1.6,0.1-2.4c0.1-0.8,0-1.3,0.1-1.9
	c0.1-0.6,0-1.1,0-1.6v-2.5l0,0c0-0.3,0.2-0.5,0.4-0.7c6.3-6.5,13.6-11.9,21.6-16h0.1c0,0.1,0,0.1,0,0.2c0.9,8.3,1.8,16.6,2.5,24.7
	l3.6,57.2c0.1,4.4,0.2,9,0.3,13.6v0.2l0,0c0,0.4,0,0.7-0.2,1.1c-0.2,0.3-0.7,0.4-1.5,0.3h-0.1c-7.3-0.8-14.5-1.7-21.8-2.9
	c0.2-3,0-6-0.5-8.9c-0.5-2.9-1.2-5.8-2.1-8.6c-0.7-2-1.5-3.9-2.4-5.7c-0.2-0.3-0.4-0.6-0.8-0.7l-0.7-0.2h-0.1V113
	c0-0.1,0-0.2-0.1-0.2c-0.1-0.1-0.4-0.2-0.7-0.4C44,110.1,44.2,107.9,44.3,105.6L44.3,105.6z M17,113.1c0.1-0.1,0.3-0.2,0.9-0.3h0.2
	c3.6-0.4,7.4-0.4,7.5-0.4c0.1,0,3.9,0,7.5,0.4h0.2c0.6,0.1,0.8,0.2,0.9,0.3c0.1,0.2,0.1,0.5,0,0.7l-0.2,0.9l-0.3,1.4l-0.3,1.3
	c-0.1,0.7-0.3,1.3-0.4,2c-0.2,1-0.4,1.9-1.2,2.2v0c-0.5,0.2-1,0.3-1.4,0.2h-9.5c-0.5,0.1-1,0-1.5-0.2c-0.7-0.4-0.9-1.2-1.2-2.2
	c-0.1-0.7-0.3-1.3-0.4-1.9l-0.3-1.4c-0.2-0.8-0.3-1.6-0.5-2.4l0,0C16.9,113.6,17,113.3,17,113.1L17,113.1z M12.9,125.4l-0.3,0.4v0
	c-2.1,3.2-3.9,6.6-5.3,10.1c-0.9,2.1-1.6,4.3-2.2,6.5l-0.1,0.2c-0.1,0.4-0.3,0.8-0.6,0.9v0c-0.1,0-0.2,0-0.2,0
	c-0.2,0-0.4-0.1-0.5-0.2c-1.2-0.8-1.9-2.1-2.1-3.5c-0.7-3.8-0.6-7.6,0.2-11.3c0.5-2.8,1.2-5.6,2.1-8.3c0.6-2,1.4-3.8,2.4-5.7
	c0.2-0.1,0.4-0.1,0.7-0.2c2-0.5,4-0.8,6.1-1.1h0.4c0.2,0,0.3,0,0.5,0h0.1c0.4,0.3,0.6,0.7,0.7,1.2c0.2,0.5,0.3,1.1,0.4,1.6l0.1,0.4
	l0.6,2.7v0c0.3,1,0.2,2.1-0.2,3c-0.3,0.4-0.7,0.8-1,1.2l-0.4,0.5C13.7,124.5,13.3,124.9,12.9,125.4z M17.6,132.5
	c-0.5,0-1-0.1-1.5-0.3c-0.8-0.3-1.5-0.9-2-1.6c-0.9-1.2-1-2.8-0.4-4.2l0.2-0.3c0.3-0.5,0.7-0.9,1.1-1.3c0.7-0.6,1.7-0.9,2.6-0.9
	c1.2-0.1,2.3,0.4,3.2,1.2c0.9,0.8,1.3,1.9,1.3,3.1c0,1.2-0.5,2.3-1.3,3.1C19.9,132.1,18.8,132.6,17.6,132.5z M26.6,131.1l-1.8,0
	c-0.3,0-0.6-0.3-0.6-0.6s0.3-0.6,0.6-0.6h1.8c0.3,0,0.6,0.3,0.6,0.6S26.9,131.1,26.6,131.1L26.6,131.1z M35.3,132.2L35.3,132.2
	c-0.5,0.2-1,0.3-1.5,0.3c-1.1,0-2.2-0.5-3-1.3c-0.8-0.8-1.3-1.9-1.3-3c0-1.1,0.5-2.2,1.3-3c0.8-0.8,1.9-1.3,3-1.3
	c1,0,1.9,0.3,2.6,0.9c0.4,0.4,0.7,0.9,1.1,1.4l0.2,0.2v0c0.3,0.6,0.4,1.2,0.4,1.8c0,0.9-0.3,1.7-0.8,2.4
	C36.8,131.3,36.1,131.9,35.3,132.2L35.3,132.2z M47.6,143.4L47.6,143.4c-0.2,0.1-0.4,0.2-0.6,0.2h-0.2c-0.3-0.1-0.5-0.5-0.6-0.9
	v-0.1l-0.1-0.4c-0.1-0.4-0.3-0.9-0.4-1.3c-0.3-0.9-0.6-1.9-0.9-2.8c-0.2-0.6-0.5-1.3-0.7-1.9l-0.1-0.1c-0.6-1.3-1.2-2.7-1.8-4.1
	l-0.2-0.4l-0.3-0.7c-0.2-0.3-0.3-0.6-0.5-0.9l-0.2-0.4c-0.2-0.4-0.4-0.8-0.7-1.2c-0.2-0.3-0.5-0.7-0.7-1.2c-0.2-0.4-0.5-0.8-0.8-1.2
	v-0.1l-0.3-0.4c-0.4-0.5-0.8-1-1.2-1.5l-0.4-0.5c-0.3-0.4-0.6-0.7-1-1.2c-0.4-1-0.5-2-0.2-3c0.2-0.9,0.4-1.9,0.6-2.8l0.1-0.5
	c0.1-0.5,0.2-1.1,0.4-1.6c0.1-0.5,0.3-0.9,0.7-1.2h1c1.7,0.2,3.1,0.4,4.1,0.6l1.2,0.2c0.3,0.1,0.6,0.1,0.8,0.2l0.6,0.2h0
	c0,0,0.1,0,0.1,0.1c0.9,1.8,1.7,3.7,2.4,5.6c0.9,2.7,1.6,5.5,2.1,8.3c0.4,2.1,0.6,4.3,0.6,6.5c0,0.7,0,1.4-0.1,2
	c0,0.4,0,0.8-0.1,1.2c-0.1,0.4-0.2,1.1-0.3,1.6l0,0c-0.1,0.5-0.2,1-0.4,1.4c-0.2,0.4-0.4,0.8-0.7,1.2
	C48.3,142.8,48,143.1,47.6,143.4L47.6,143.4z M74.8,141.5c-0.2,0-15.2,0.3-23.9,0h-0.3l0,0c0.1-0.4,0.3-0.8,0.4-1.3
	c0.1-0.5,0.2-1.1,0.3-1.7c7.3,1.2,14.6,2.1,21.9,2.8c0.2,0,0.4,0,0.6,0c0.7,0.1,1.5-0.2,2-0.8c0.3-0.4,0.4-0.9,0.4-1.3l0.2,0.1
	l1.4,0.4c0.8,0.3,1.6,0.5,2.4,0.7C78.4,141.2,76.6,141.5,74.8,141.5L74.8,141.5z M87.4,49.2c0,0.2,0,0.4-0.1,0.6
	c-2.1,20.3-3.6,42.1-4.5,68.5c-0.2,6.2-0.5,12.4-0.7,18.7v2v0c0,0.2,0,0.4-0.1,0.5h-0.2c-0.6-0.1-1.3-0.3-1.9-0.5
	c0.5-0.1,1.2-0.5,1.2-1.7c0-2.4,0-4.7,0.1-7c0-4.1,0.1-8.3,0.2-12.5c0.1-4.1,0.3-8.4,0.4-12.6c0.1-2.9,0.2-5.8,0.4-8.7l0.3-5.3
	c0.2-3.7,0.3-7.5,0.5-11.2l0.1-3.1c0.1-3.1,0.3-6.3,0.3-9.5c0-2,0.1-4.1,0-6.1c0-1.3-0.2-2.6-0.5-3.9c-0.3-1.5-0.9-2.8-1.7-4.1
	c-0.7-0.9-1.6-1.5-2.6-1.8c1.3-0.7,2.6-1.3,3.9-2c1.3-0.7,2.4-1.3,3.6-2l0.1-0.1c0.3-0.2,1-0.6,1.2-0.5c0,0,0.1,0,0.1,0.1l0,0
	C87.5,47.7,87.6,48.5,87.4,49.2L87.4,49.2z"/>
<path d="M19.7,127.9c0,1.2-0.9,2.1-2.1,2.1c-1.2,0-2.1-0.9-2.1-2.1s0.9-2.1,2.1-2.1C18.8,125.8,19.7,126.7,19.7,127.9z"/>
<path d="M10.6,117.1h-0.1c-0.3,0-0.5,0-0.8,0H9.6c-0.3,0-0.5,0.3-0.5,0.6v0.8c0,0.1,0.1,0.3,0.2,0.4l0.6,0.6l0,0
	c0.1,0.1,0.3,0.1,0.4,0l0.6-0.6l0,0c0.1-0.1,0.2-0.2,0.2-0.3l0.1-0.8C11.1,117.5,10.9,117.2,10.6,117.1L10.6,117.1z"/>
<path d="M10.9,123l-0.6-0.6h0c0-0.1-0.1-0.1-0.2-0.1c-0.1,0-0.1,0-0.2,0.1L9.3,123c-0.1,0.1-0.2,0.2-0.2,0.4v0.8
	c0,0.2,0,0.3,0.2,0.5c0.1,0.1,0.2,0.2,0.4,0.2h0.1c0.3,0,0.5,0,0.8,0h0.1c0.2,0,0.3-0.1,0.4-0.2c0.1-0.1,0.1-0.3,0.1-0.5v-0.8
	C11,123.2,11,123.1,10.9,123z"/>
<path d="M13.7,120.1c-0.1-0.1-0.3-0.2-0.4-0.2h-0.8h0c-0.1,0-0.3,0.1-0.4,0.2l-0.6,0.6h0c-0.1,0-0.1,0.1-0.1,0.2
	c0,0.1,0,0.1,0.1,0.2l0.6,0.6h0c0.1,0.1,0.2,0.2,0.4,0.2l0.8,0.1h0c0.2,0,0.3,0,0.5-0.2c0.1-0.1,0.2-0.2,0.2-0.4v-0.1
	c0-0.3,0-0.5,0-0.8v-0.1C13.9,120.3,13.8,120.2,13.7,120.1z"/>
<path d="M8.1,120.2C8,120.1,7.8,120,7.7,120H6.9h0c-0.3,0-0.6,0.2-0.7,0.5v0.1c0,0.3,0,0.5,0,0.8v0.1c0,0.3,0.3,0.5,0.6,0.5l0.8-0.1
	c0.1,0,0.3-0.1,0.4-0.2l0.6-0.6v0c0.1-0.1,0.1-0.3,0-0.4L8.1,120.2z"/>
<path d="M33.7,125.8c-0.8,0-1.6,0.5-1.9,1.3c-0.3,0.8-0.1,1.7,0.5,2.3c0.6,0.6,1.5,0.8,2.3,0.5c0.8-0.3,1.3-1.1,1.3-1.9
	c0-0.6-0.2-1.1-0.6-1.5C34.8,126,34.3,125.8,33.7,125.8z"/>
<path d="M41.3,116.5c-0.7,0.1-1.3,0.7-1.3,1.4s0.6,1.3,1.3,1.4c0.3,0,0.6-0.1,0.8-0.3c0.4-0.3,0.6-0.7,0.6-1.1c0-0.4-0.1-0.7-0.4-1
	C42,116.6,41.7,116.4,41.3,116.5z"/>
<path d="M41.8,122.8c-0.2-0.1-0.3-0.1-0.5-0.1c-0.8,0-1.4,0.6-1.4,1.4c0,0.8,0.6,1.4,1.4,1.4h0.2c0.6-0.1,1.1-0.6,1.1-1.2
	C42.7,123.7,42.4,123.1,41.8,122.8L41.8,122.8z"/>
<path d="M44.4,119.6c-0.4,0-0.7,0.1-1,0.4c-0.3,0.3-0.4,0.6-0.4,1c0,0.1,0,0.2,0,0.4c0.2,0.7,0.8,1.1,1.5,1c0.7-0.1,1.2-0.7,1.2-1.4
	C45.8,120.2,45.2,119.6,44.4,119.6z"/>
<path d="M38.1,119.6c-0.7,0.1-1.3,0.7-1.3,1.4s0.6,1.3,1.3,1.4c0.4,0,0.8-0.1,1.1-0.4c0.3-0.3,0.5-0.6,0.5-1c0-0.4-0.2-0.8-0.5-1
	C38.9,119.7,38.5,119.6,38.1,119.6z"/>
<line class="st7" x1="246.6" y1="37" x2="246.6" y2="214"/>
</svg>
